# 3ds Max Wavefront OBJ Exporter v0.99 - (c)2007 guruware
# File Created: 03.10.2022 15:58:59

mtllib cacetete2.mtl

#
# object funcionario_0
#

v  -0.0979 0.0158 0.1000
v  -0.0979 -0.0842 -0.1000
v  -0.0979 -0.0842 0.1000
v  -0.0979 0.0158 -0.1000
v  -0.0979 0.1158 0.1000
v  -0.0979 0.1158 -0.1000
v  -0.0979 0.2158 0.1000
v  -0.0979 0.2158 -0.1000
v  -0.0979 0.3158 0.1000
v  -0.0979 0.3158 -0.1000
v  -0.0979 1.7158 0.1000
v  -0.0979 1.7158 -0.1000
v  0.4021 0.3158 0.1000
v  0.4021 0.2158 -0.1000
v  0.4021 0.2158 0.1000
v  0.4021 0.3158 -0.1000
v  0.4021 0.5158 0.2000
v  0.4021 0.3158 0.2000
v  0.4021 0.5158 0.1000
v  0.4021 0.5158 -0.1000
v  0.4021 0.3158 -0.2000
v  0.4021 0.5158 -0.2000
v  0.4021 0.6158 0.1000
v  0.4021 0.6158 -0.1000
v  0.1021 -0.0842 0.1000
v  0.1021 -0.0842 -0.1000
v  0.1021 0.0158 0.1000
v  0.1021 0.0158 -0.1000
v  0.1021 0.1158 0.1000
v  0.1021 0.1158 -0.1000
v  0.1021 0.2158 0.1000
v  0.1021 0.2158 -0.1000
v  0.1021 0.3158 0.1000
v  0.1021 0.3158 -0.1000
v  0.1021 0.5158 0.1000
v  0.1021 0.5158 -0.1000
v  0.1021 1.7158 0.1000
v  0.1021 1.7158 -0.1000
v  0.5021 0.2158 0.1000
v  0.5021 0.2158 -0.1000
v  0.5021 0.3158 0.1000
v  0.5021 0.3158 -0.1000
v  0.5021 0.3158 0.2000
v  0.5021 0.5158 0.2000
v  0.5021 0.3158 -0.2000
v  0.5021 0.5158 0.1000
v  0.5021 0.5158 -0.1000
v  0.5021 0.5158 -0.2000
v  0.5021 0.6158 0.1000
v  0.5021 0.6158 -0.1000
# 50 vertices

vn -1.0000 0.0000 -0.0000
vn 1.0000 0.0000 -0.0000
vn 0.0000 0.0000 1.0000
vn 0.0000 0.0000 -1.0000
vn 0.0000 -1.0000 -0.0000
vn 0.0000 1.0000 -0.0000
# 6 vertex normals

vt 0.9941 0.5000 0.0000
vt 0.9902 0.5000 0.0000
# 2 texture coords

o funcionario_0
g funcionario_0
usemtl funcionario_0_palette
s 1
f 1/1/1 2/1/1 3/1/1 
f 4/1/1 2/1/1 1/1/1 
f 5/2/1 4/2/1 1/2/1 
f 6/2/1 4/2/1 5/2/1 
f 7/1/1 6/1/1 5/1/1 
f 8/1/1 6/1/1 7/1/1 
f 9/2/1 8/2/1 7/2/1 
f 10/2/1 8/2/1 9/2/1 
f 11/1/1 10/1/1 9/1/1 
f 12/1/1 10/1/1 11/1/1 
f 13/1/1 14/1/1 15/1/1 
f 16/1/1 14/1/1 13/1/1 
f 17/1/1 13/1/1 18/1/1 
f 19/1/1 13/1/1 17/1/1 
f 20/1/1 21/1/1 16/1/1 
f 22/1/1 21/1/1 20/1/1 
f 23/1/1 20/1/1 19/1/1 
f 24/1/1 20/1/1 23/1/1 
f 25/1/2 26/1/2 27/1/2 
f 27/1/2 26/1/2 28/1/2 
f 27/2/2 28/2/2 29/2/2 
f 29/2/2 28/2/2 30/2/2 
f 29/1/2 30/1/2 31/1/2 
f 31/1/2 30/1/2 32/1/2 
f 31/2/2 32/2/2 33/2/2 
f 33/2/2 32/2/2 34/2/2 
f 35/1/2 36/1/2 37/1/2 
f 37/1/2 36/1/2 38/1/2 
f 39/1/2 40/1/2 41/1/2 
f 41/1/2 40/1/2 42/1/2 
f 43/1/2 41/1/2 44/1/2 
f 42/1/2 45/1/2 44/1/2 
f 41/1/2 42/1/2 44/1/2 
f 44/1/2 45/1/2 46/1/2 
f 46/1/2 45/1/2 47/1/2 
f 47/1/2 45/1/2 48/1/2 
f 46/1/2 47/1/2 49/1/2 
f 49/1/2 47/1/2 50/1/2 
f 43/1/3 17/1/3 18/1/3 
f 44/1/3 17/1/3 43/1/3 
f 25/1/3 1/1/3 3/1/3 
f 27/2/3 5/2/3 1/2/3 
f 27/1/3 1/1/3 25/1/3 
f 29/1/3 7/1/3 5/1/3 
f 29/2/3 5/2/3 27/2/3 
f 31/2/3 9/2/3 7/2/3 
f 31/1/3 7/1/3 29/1/3 
f 33/1/3 11/1/3 9/1/3 
f 33/2/3 9/2/3 31/2/3 
f 35/1/3 11/1/3 33/1/3 
f 37/1/3 11/1/3 35/1/3 
f 13/1/3 35/1/3 33/1/3 
f 19/1/3 35/1/3 13/1/3 
f 39/1/3 13/1/3 15/1/3 
f 41/1/3 13/1/3 39/1/3 
f 46/1/3 23/1/3 19/1/3 
f 49/1/3 23/1/3 46/1/3 
f 2/1/4 4/1/4 26/1/4 
f 4/2/4 6/2/4 28/2/4 
f 26/1/4 4/1/4 28/1/4 
f 6/1/4 8/1/4 30/1/4 
f 28/2/4 6/2/4 30/2/4 
f 8/2/4 10/2/4 32/2/4 
f 30/1/4 8/1/4 32/1/4 
f 10/1/4 12/1/4 34/1/4 
f 32/2/4 10/2/4 34/2/4 
f 34/1/4 12/1/4 36/1/4 
f 36/1/4 12/1/4 38/1/4 
f 34/1/4 36/1/4 16/1/4 
f 16/1/4 36/1/4 20/1/4 
f 14/1/4 16/1/4 40/1/4 
f 40/1/4 16/1/4 42/1/4 
f 20/1/4 24/1/4 47/1/4 
f 47/1/4 24/1/4 50/1/4 
f 21/1/4 22/1/4 45/1/4 
f 45/1/4 22/1/4 48/1/4 
f 2/1/5 25/1/5 3/1/5 
f 26/1/5 25/1/5 2/1/5 
f 14/1/5 39/1/5 15/1/5 
f 40/1/5 39/1/5 14/1/5 
f 13/1/5 43/1/5 18/1/5 
f 41/1/5 43/1/5 13/1/5 
f 34/1/5 13/1/5 33/1/5 
f 16/1/5 13/1/5 34/1/5 
f 21/1/5 42/1/5 16/1/5 
f 45/1/5 42/1/5 21/1/5 
f 17/1/6 44/1/6 19/1/6 
f 19/1/6 44/1/6 46/1/6 
f 35/1/6 19/1/6 36/1/6 
f 36/1/6 19/1/6 20/1/6 
f 20/1/6 47/1/6 22/1/6 
f 22/1/6 47/1/6 48/1/6 
f 23/1/6 49/1/6 24/1/6 
f 24/1/6 49/1/6 50/1/6 
f 11/1/6 37/1/6 12/1/6 
f 12/1/6 37/1/6 38/1/6 
# 0 polygons - 96 triangles

