# MagicaVoxel @ Ephtracy

# group
o 

# material
mtllib ToyRobot.mtl
usemtl palette

# normals
vn -1 0 0
vn 1 0 0
vn 0 0 1
vn 0 0 -1
vn 0 -1 0
vn 0 1 0

# texcoords
vt 0.591797 0.5
vt 0.642578 0.5
vt 0.666016 0.5
vt 0.857422 0.5
vt 0.958984 0.5

# verts
v -0.7 1.1 0.4
v -0.7 1.1 0.2
v -0.7 1.2 0.4
v -0.7 1.2 0.3
v -0.7 1.2 0.2
v -0.7 1.2 -0.1
v -0.7 1.2 -0.3
v -0.7 1.4 0.4
v -0.7 1.4 0.3
v -0.7 1.4 0.2
v -0.7 1.4 -0.1
v -0.7 1.4 -0.3
v -0.7 1.5 0.4
v -0.7 1.5 0.2
v -0.6 1.1 0
v -0.6 1.1 -0.4
v -0.6 1.2 0
v -0.6 1.2 -0.1
v -0.6 1.2 -0.3
v -0.6 1.4 0
v -0.6 1.4 -0.1
v -0.6 1.4 -0.3
v -0.6 1.5 0
v -0.6 1.5 -0.4
v -0.5 0.6 0.1
v -0.5 0.6 -0.6
v -0.5 1.1 0
v -0.5 1.1 -0.4
v -0.5 1.5 0
v -0.5 1.5 -0.4
v -0.5 1.6 0.1
v -0.5 1.6 -0.6
v -0.4 0 -0.1
v -0.4 0 -0.4
v -0.4 0.1 -0.1
v -0.4 0.1 -0.2
v -0.4 0.1 -0.4
v -0.4 0.2 -0.2
v -0.4 0.2 -0.4
v -0.4 0.6 -0.2
v -0.4 0.6 -0.4
v -0.4 1 0.2
v -0.4 1 0.1
v -0.4 1.5 0.2
v -0.4 1.5 0.1
v -0.4 1.6 0
v -0.4 1.6 -0.5
v -0.4 2 0
v -0.4 2 -0.5
v -0.3 1.8 0.1
v -0.3 1.8 0
v -0.3 1.9 0.1
v -0.3 1.9 0
v -0.2 2.1 -0.2
v -0.2 2.1 -0.3
v -0.2 2.4 -0.2
v -0.2 2.4 -0.3
v -0.1 2 -0.2
v -0.1 2 -0.3
v -0.1 2.1 -0.2
v -0.1 2.1 -0.3
v 5.96046e-08 1.7 0
v 5.96046e-08 1.7 -0.2
v 5.96046e-08 1.8 0
v 5.96046e-08 1.8 -0.2
v 5.96046e-08 2.2 -0.2
v 5.96046e-08 2.2 -0.3
v 5.96046e-08 2.3 -0.2
v 5.96046e-08 2.3 -0.3
v 0.1 0 -0.1
v 0.1 0 -0.4
v 0.1 0.1 -0.1
v 0.1 0.1 -0.2
v 0.1 0.1 -0.4
v 0.1 0.2 -0.2
v 0.1 0.2 -0.4
v 0.1 0.6 -0.2
v 0.1 0.6 -0.4
v 0.1 1.8 0.1
v 0.1 1.8 0
v 0.1 1.9 0.1
v 0.1 1.9 0
v 0.2 1.3 0.2
v 0.2 1.3 0.1
v 0.2 1.4 0.2
v 0.2 1.4 0.1
v 0.5 1.1 0.4
v 0.5 1.1 0.2
v 0.5 1.2 0.4
v 0.5 1.2 0.3
v 0.5 1.2 0.2
v 0.5 1.2 0
v 0.5 1.4 0.4
v 0.5 1.4 0.3
v 0.5 1.4 0.2
v 0.5 1.4 0
v 0.5 1.5 0.4
v 0.5 1.5 0.2
v -0.6 1.1 0.4
v -0.6 1.1 0.2
v -0.6 1.2 0.4
v -0.6 1.2 0.3
v -0.6 1.2 0.2
v -0.6 1.2 0
v -0.6 1.4 0.4
v -0.6 1.4 0.3
v -0.6 1.4 0.2
v -0.6 1.4 0
v -0.6 1.5 0.4
v -0.6 1.5 0.2
v -0.3 1.3 0.2
v -0.3 1.3 0.1
v -0.3 1.4 0.2
v -0.3 1.4 0.1
v -0.2 0 -0.1
v -0.2 0 -0.4
v -0.2 0.1 -0.1
v -0.2 0.1 -0.2
v -0.2 0.1 -0.4
v -0.2 0.2 -0.2
v -0.2 0.2 -0.4
v -0.2 0.6 -0.2
v -0.2 0.6 -0.4
v -0.2 1.8 0.1
v -0.2 1.8 0
v -0.2 1.9 0.1
v -0.2 1.9 0
v -0.1 1.7 0
v -0.1 1.7 -0.2
v -0.1 1.8 0
v -0.1 1.8 -0.2
v -0.1 2.2 -0.2
v -0.1 2.2 -0.3
v -0.1 2.3 -0.2
v -0.1 2.3 -0.3
v 5.96046e-08 2 -0.2
v 5.96046e-08 2 -0.3
v 5.96046e-08 2.1 -0.2
v 5.96046e-08 2.1 -0.3
v 0.1 2.1 -0.2
v 0.1 2.1 -0.3
v 0.1 2.4 -0.2
v 0.1 2.4 -0.3
v 0.2 1.8 0.1
v 0.2 1.8 0
v 0.2 1.9 0.1
v 0.2 1.9 0
v 0.3 0 -0.1
v 0.3 0 -0.4
v 0.3 0.1 -0.1
v 0.3 0.1 -0.2
v 0.3 0.1 -0.4
v 0.3 0.2 -0.2
v 0.3 0.2 -0.4
v 0.3 0.6 -0.2
v 0.3 0.6 -0.4
v 0.3 1 0.2
v 0.3 1 0.1
v 0.3 1.5 0.2
v 0.3 1.5 0.1
v 0.3 1.6 0
v 0.3 1.6 -0.5
v 0.3 2 0
v 0.3 2 -0.5
v 0.4 0.6 0.1
v 0.4 0.6 -0.6
v 0.4 1.1 0
v 0.4 1.1 -0.4
v 0.4 1.5 0
v 0.4 1.5 -0.4
v 0.4 1.6 0.1
v 0.4 1.6 -0.6
v 0.5 1.1 0
v 0.5 1.1 -0.4
v 0.5 1.2 0
v 0.5 1.2 -0.1
v 0.5 1.2 -0.3
v 0.5 1.4 0
v 0.5 1.4 -0.1
v 0.5 1.4 -0.3
v 0.5 1.5 0
v 0.5 1.5 -0.4
v 0.6 1.1 0.4
v 0.6 1.1 0.2
v 0.6 1.2 0.4
v 0.6 1.2 0.3
v 0.6 1.2 0.2
v 0.6 1.2 -0.1
v 0.6 1.2 -0.3
v 0.6 1.4 0.4
v 0.6 1.4 0.3
v 0.6 1.4 0.2
v 0.6 1.4 -0.1
v 0.6 1.4 -0.3
v 0.6 1.5 0.4
v 0.6 1.5 0.2
v -0.7 1.1 0.4
v -0.7 1.2 0.4
v -0.7 1.4 0.4
v -0.7 1.5 0.4
v -0.6 1.1 0.4
v -0.6 1.2 0.4
v -0.6 1.4 0.4
v -0.6 1.5 0.4
v 0.5 1.1 0.4
v 0.5 1.2 0.4
v 0.5 1.4 0.4
v 0.5 1.5 0.4
v 0.6 1.1 0.4
v 0.6 1.2 0.4
v 0.6 1.4 0.4
v 0.6 1.5 0.4
v -0.7 1.2 0.3
v -0.7 1.4 0.3
v -0.6 1.2 0.3
v -0.6 1.4 0.3
v 0.5 1.2 0.3
v 0.5 1.4 0.3
v 0.6 1.2 0.3
v 0.6 1.4 0.3
v -0.4 1 0.2
v -0.4 1.5 0.2
v -0.3 1.1 0.2
v -0.3 1.2 0.2
v -0.3 1.3 0.2
v -0.3 1.4 0.2
v -0.2 1.1 0.2
v -0.2 1.2 0.2
v -0.1 1.1 0.2
v -0.1 1.2 0.2
v 5.96046e-08 1.1 0.2
v 5.96046e-08 1.2 0.2
v 0.1 1.1 0.2
v 0.1 1.2 0.2
v 0.2 1.1 0.2
v 0.2 1.2 0.2
v 0.2 1.3 0.2
v 0.2 1.4 0.2
v 0.3 1 0.2
v 0.3 1.5 0.2
v -0.5 0.6 0.1
v -0.5 1.6 0.1
v -0.4 1 0.1
v -0.4 1.5 0.1
v -0.3 1.3 0.1
v -0.3 1.4 0.1
v -0.3 1.8 0.1
v -0.3 1.9 0.1
v -0.2 1.8 0.1
v -0.2 1.9 0.1
v 0.1 1.8 0.1
v 0.1 1.9 0.1
v 0.2 1.3 0.1
v 0.2 1.4 0.1
v 0.2 1.8 0.1
v 0.2 1.9 0.1
v 0.3 1 0.1
v 0.3 1.5 0.1
v 0.4 0.6 0.1
v 0.4 1.6 0.1
v -0.6 1.1 0
v -0.6 1.2 0
v -0.6 1.4 0
v -0.6 1.5 0
v -0.5 1.1 0
v -0.5 1.5 0
v -0.4 1.6 0
v -0.4 2 0
v -0.3 1.8 0
v -0.3 1.9 0
v -0.2 1.8 0
v -0.2 1.9 0
v -0.1 1.7 0
v -0.1 1.8 0
v 5.96046e-08 1.7 0
v 5.96046e-08 1.8 0
v 0.1 1.8 0
v 0.1 1.9 0
v 0.2 1.8 0
v 0.2 1.9 0
v 0.3 1.6 0
v 0.3 2 0
v 0.4 1.1 0
v 0.4 1.5 0
v 0.5 1.1 0
v 0.5 1.2 0
v 0.5 1.4 0
v 0.5 1.5 0
v -0.4 0 -0.1
v -0.4 0.1 -0.1
v -0.2 0 -0.1
v -0.2 0.1 -0.1
v 0.1 0 -0.1
v 0.1 0.1 -0.1
v 0.3 0 -0.1
v 0.3 0.1 -0.1
v -0.4 0.1 -0.2
v -0.4 0.2 -0.2
v -0.4 0.6 -0.2
v -0.2 0.1 -0.2
v -0.2 0.2 -0.2
v -0.2 0.6 -0.2
v -0.2 2.1 -0.2
v -0.2 2.4 -0.2
v -0.1 1.7 -0.2
v -0.1 1.8 -0.2
v -0.1 2 -0.2
v -0.1 2.1 -0.2
v -0.1 2.2 -0.2
v -0.1 2.3 -0.2
v 5.96046e-08 1.7 -0.2
v 5.96046e-08 1.8 -0.2
v 5.96046e-08 2 -0.2
v 5.96046e-08 2.1 -0.2
v 5.96046e-08 2.2 -0.2
v 5.96046e-08 2.3 -0.2
v 0.1 0.1 -0.2
v 0.1 0.2 -0.2
v 0.1 0.6 -0.2
v 0.1 2.1 -0.2
v 0.1 2.4 -0.2
v 0.3 0.1 -0.2
v 0.3 0.2 -0.2
v 0.3 0.6 -0.2
v -0.7 1.1 0.2
v -0.7 1.2 0.2
v -0.7 1.4 0.2
v -0.7 1.5 0.2
v -0.6 1.1 0.2
v -0.6 1.2 0.2
v -0.6 1.4 0.2
v -0.6 1.5 0.2
v 0.5 1.1 0.2
v 0.5 1.2 0.2
v 0.5 1.4 0.2
v 0.5 1.5 0.2
v 0.6 1.1 0.2
v 0.6 1.2 0.2
v 0.6 1.4 0.2
v 0.6 1.5 0.2
v -0.7 1.2 -0.3
v -0.7 1.4 -0.3
v -0.6 1.2 -0.3
v -0.6 1.4 -0.3
v -0.2 2.1 -0.3
v -0.2 2.4 -0.3
v -0.1 2 -0.3
v -0.1 2.1 -0.3
v -0.1 2.2 -0.3
v -0.1 2.3 -0.3
v 5.96046e-08 2 -0.3
v 5.96046e-08 2.1 -0.3
v 5.96046e-08 2.2 -0.3
v 5.96046e-08 2.3 -0.3
v 0.1 2.1 -0.3
v 0.1 2.4 -0.3
v 0.5 1.2 -0.3
v 0.5 1.4 -0.3
v 0.6 1.2 -0.3
v 0.6 1.4 -0.3
v -0.6 1.1 -0.4
v -0.6 1.5 -0.4
v -0.5 1.1 -0.4
v -0.5 1.5 -0.4
v -0.4 0 -0.4
v -0.4 0.1 -0.4
v -0.4 0.2 -0.4
v -0.4 0.6 -0.4
v -0.2 0 -0.4
v -0.2 0.1 -0.4
v -0.2 0.2 -0.4
v -0.2 0.6 -0.4
v 0.1 0 -0.4
v 0.1 0.1 -0.4
v 0.1 0.2 -0.4
v 0.1 0.6 -0.4
v 0.3 0 -0.4
v 0.3 0.1 -0.4
v 0.3 0.2 -0.4
v 0.3 0.6 -0.4
v 0.4 1.1 -0.4
v 0.4 1.5 -0.4
v 0.5 1.1 -0.4
v 0.5 1.5 -0.4
v -0.4 1.6 -0.5
v -0.4 2 -0.5
v 0.3 1.6 -0.5
v 0.3 2 -0.5
v -0.5 0.6 -0.6
v -0.5 1.6 -0.6
v 0.4 0.6 -0.6
v 0.4 1.6 -0.6
v -0.4 0 -0.1
v -0.2 0 -0.1
v 0.1 0 -0.1
v 0.3 0 -0.1
v -0.4 0 -0.4
v -0.2 0 -0.4
v 0.1 0 -0.4
v 0.3 0 -0.4
v -0.5 0.6 0.1
v 0.4 0.6 0.1
v -0.4 0.6 -0.2
v -0.2 0.6 -0.2
v 0.1 0.6 -0.2
v 0.3 0.6 -0.2
v -0.4 0.6 -0.4
v -0.2 0.6 -0.4
v 0.1 0.6 -0.4
v 0.3 0.6 -0.4
v -0.5 0.6 -0.6
v 0.4 0.6 -0.6
v -0.4 1 0.2
v 0.3 1 0.2
v -0.4 1 0.1
v 0.3 1 0.1
v -0.7 1.1 0.4
v -0.6 1.1 0.4
v 0.5 1.1 0.4
v 0.6 1.1 0.4
v -0.7 1.1 0.2
v -0.6 1.1 0.2
v 0.5 1.1 0.2
v 0.6 1.1 0.2
v -0.6 1.1 0
v -0.5 1.1 0
v 0.4 1.1 0
v 0.5 1.1 0
v -0.6 1.1 -0.4
v -0.5 1.1 -0.4
v 0.4 1.1 -0.4
v 0.5 1.1 -0.4
v -0.7 1.2 0.2
v -0.6 1.2 0.2
v 0.5 1.2 0.2
v 0.6 1.2 0.2
v -0.6 1.2 0
v 0.5 1.2 0
v -0.7 1.2 -0.1
v -0.6 1.2 -0.1
v 0.5 1.2 -0.1
v 0.6 1.2 -0.1
v -0.7 1.2 -0.3
v -0.6 1.2 -0.3
v 0.5 1.2 -0.3
v 0.6 1.2 -0.3
v -0.7 1.4 0.4
v -0.6 1.4 0.4
v 0.5 1.4 0.4
v 0.6 1.4 0.4
v -0.7 1.4 0.3
v -0.6 1.4 0.3
v 0.5 1.4 0.3
v 0.6 1.4 0.3
v -0.3 1.4 0.2
v 0.2 1.4 0.2
v -0.3 1.4 0.1
v 0.2 1.4 0.1
v -0.3 1.8 0.1
v -0.2 1.8 0.1
v 0.1 1.8 0.1
v 0.2 1.8 0.1
v -0.3 1.8 0
v -0.2 1.8 0
v -0.1 1.8 0
v 5.96046e-08 1.8 0
v 0.1 1.8 0
v 0.2 1.8 0
v -0.1 1.8 -0.2
v 5.96046e-08 1.8 -0.2
v -0.2 2.1 -0.2
v -0.1 2.1 -0.2
v 5.96046e-08 2.1 -0.2
v 0.1 2.1 -0.2
v -0.2 2.1 -0.3
v -0.1 2.1 -0.3
v 5.96046e-08 2.1 -0.3
v 0.1 2.1 -0.3
v -0.1 2.3 -0.2
v 5.96046e-08 2.3 -0.2
v -0.1 2.3 -0.3
v 5.96046e-08 2.3 -0.3
v -0.4 0.1 -0.1
v -0.2 0.1 -0.1
v 0.1 0.1 -0.1
v 0.3 0.1 -0.1
v -0.4 0.1 -0.2
v -0.2 0.1 -0.2
v 0.1 0.1 -0.2
v 0.3 0.1 -0.2
v -0.7 1.2 0.4
v -0.6 1.2 0.4
v 0.5 1.2 0.4
v 0.6 1.2 0.4
v -0.7 1.2 0.3
v -0.6 1.2 0.3
v 0.5 1.2 0.3
v 0.6 1.2 0.3
v -0.3 1.3 0.2
v 0.2 1.3 0.2
v -0.3 1.3 0.1
v 0.2 1.3 0.1
v -0.7 1.4 0.2
v -0.6 1.4 0.2
v 0.5 1.4 0.2
v 0.6 1.4 0.2
v -0.6 1.4 0
v 0.5 1.4 0
v -0.7 1.4 -0.1
v -0.6 1.4 -0.1
v 0.5 1.4 -0.1
v 0.6 1.4 -0.1
v -0.7 1.4 -0.3
v -0.6 1.4 -0.3
v 0.5 1.4 -0.3
v 0.6 1.4 -0.3
v -0.7 1.5 0.4
v -0.6 1.5 0.4
v 0.5 1.5 0.4
v 0.6 1.5 0.4
v -0.7 1.5 0.2
v -0.6 1.5 0.2
v -0.4 1.5 0.2
v 0.3 1.5 0.2
v 0.5 1.5 0.2
v 0.6 1.5 0.2
v -0.4 1.5 0.1
v 0.3 1.5 0.1
v -0.6 1.5 0
v -0.5 1.5 0
v 0.4 1.5 0
v 0.5 1.5 0
v -0.6 1.5 -0.4
v -0.5 1.5 -0.4
v 0.4 1.5 -0.4
v 0.5 1.5 -0.4
v -0.5 1.6 0.1
v 0.4 1.6 0.1
v -0.4 1.6 0
v 0.3 1.6 0
v -0.4 1.6 -0.5
v 0.3 1.6 -0.5
v -0.5 1.6 -0.6
v 0.4 1.6 -0.6
v -0.1 1.7 0
v 5.96046e-08 1.7 0
v -0.1 1.7 -0.2
v 5.96046e-08 1.7 -0.2
v -0.3 1.9 0.1
v -0.2 1.9 0.1
v 0.1 1.9 0.1
v 0.2 1.9 0.1
v -0.3 1.9 0
v -0.2 1.9 0
v 0.1 1.9 0
v 0.2 1.9 0
v -0.4 2 0
v 0.3 2 0
v -0.1 2 -0.2
v 5.96046e-08 2 -0.2
v -0.1 2 -0.3
v 5.96046e-08 2 -0.3
v -0.4 2 -0.5
v 0.3 2 -0.5
v -0.1 2.2 -0.2
v 5.96046e-08 2.2 -0.2
v -0.1 2.2 -0.3
v 5.96046e-08 2.2 -0.3
v -0.2 2.4 -0.2
v 0.1 2.4 -0.2
v -0.2 2.4 -0.3
v 0.1 2.4 -0.3

# faces
f 3/5/1 2/5/1 1/5/1
f 4/5/1 2/5/1 3/5/1
f 5/5/1 2/5/1 4/5/1
f 9/5/1 5/5/1 4/5/1
f 10/2/1 6/2/1 5/2/1
f 10/5/1 5/5/1 9/5/1
f 11/4/1 7/4/1 6/4/1
f 11/2/1 6/2/1 10/2/1
f 12/4/1 7/4/1 11/4/1
f 13/5/1 10/5/1 9/5/1
f 13/5/1 9/5/1 8/5/1
f 14/5/1 10/5/1 13/5/1
f 17/1/1 16/1/1 15/1/1
f 18/1/1 16/1/1 17/1/1
f 19/1/1 16/1/1 18/1/1
f 22/1/1 16/1/1 19/1/1
f 23/1/1 21/1/1 20/1/1
f 23/1/1 22/1/1 21/1/1
f 24/1/1 16/1/1 22/1/1
f 24/1/1 22/1/1 23/1/1
f 27/3/1 26/3/1 25/3/1
f 28/3/1 26/3/1 27/3/1
f 29/3/1 27/3/1 25/3/1
f 30/3/1 26/3/1 28/3/1
f 31/3/1 29/3/1 25/3/1
f 31/3/1 30/3/1 29/3/1
f 32/3/1 26/3/1 30/3/1
f 32/3/1 30/3/1 31/3/1
f 35/5/1 34/5/1 33/5/1
f 36/5/1 34/5/1 35/5/1
f 37/5/1 34/5/1 36/5/1
f 38/4/1 37/4/1 36/4/1
f 39/4/1 37/4/1 38/4/1
f 40/2/1 39/2/1 38/2/1
f 41/2/1 39/2/1 40/2/1
f 44/1/1 43/1/1 42/1/1
f 45/1/1 43/1/1 44/1/1
f 48/3/1 47/3/1 46/3/1
f 49/3/1 47/3/1 48/3/1
f 52/4/1 51/4/1 50/4/1
f 53/4/1 51/4/1 52/4/1
f 56/4/1 55/4/1 54/4/1
f 57/4/1 55/4/1 56/4/1
f 60/5/1 59/5/1 58/5/1
f 61/5/1 59/5/1 60/5/1
f 64/3/1 63/3/1 62/3/1
f 65/3/1 63/3/1 64/3/1
f 68/4/1 67/4/1 66/4/1
f 69/4/1 67/4/1 68/4/1
f 72/5/1 71/5/1 70/5/1
f 73/5/1 71/5/1 72/5/1
f 74/5/1 71/5/1 73/5/1
f 75/4/1 74/4/1 73/4/1
f 76/4/1 74/4/1 75/4/1
f 77/2/1 76/2/1 75/2/1
f 78/2/1 76/2/1 77/2/1
f 81/4/1 80/4/1 79/4/1
f 82/4/1 80/4/1 81/4/1
f 85/1/1 84/1/1 83/1/1
f 86/1/1 84/1/1 85/1/1
f 89/5/1 88/5/1 87/5/1
f 90/5/1 88/5/1 89/5/1
f 91/5/1 88/5/1 90/5/1
f 94/5/1 91/5/1 90/5/1
f 95/2/1 92/2/1 91/2/1
f 95/5/1 91/5/1 94/5/1
f 96/2/1 92/2/1 95/2/1
f 97/5/1 94/5/1 93/5/1
f 97/5/1 95/5/1 94/5/1
f 98/5/1 95/5/1 97/5/1
f 99/5/2 100/5/2 101/5/2
f 101/5/2 100/5/2 102/5/2
f 102/5/2 100/5/2 103/5/2
f 102/5/2 103/5/2 106/5/2
f 103/2/2 104/2/2 107/2/2
f 106/5/2 103/5/2 107/5/2
f 107/2/2 104/2/2 108/2/2
f 105/5/2 106/5/2 109/5/2
f 106/5/2 107/5/2 109/5/2
f 109/5/2 107/5/2 110/5/2
f 111/1/2 112/1/2 113/1/2
f 113/1/2 112/1/2 114/1/2
f 115/5/2 116/5/2 117/5/2
f 117/5/2 116/5/2 118/5/2
f 118/5/2 116/5/2 119/5/2
f 118/4/2 119/4/2 120/4/2
f 120/4/2 119/4/2 121/4/2
f 120/2/2 121/2/2 122/2/2
f 122/2/2 121/2/2 123/2/2
f 124/4/2 125/4/2 126/4/2
f 126/4/2 125/4/2 127/4/2
f 128/3/2 129/3/2 130/3/2
f 130/3/2 129/3/2 131/3/2
f 132/4/2 133/4/2 134/4/2
f 134/4/2 133/4/2 135/4/2
f 136/5/2 137/5/2 138/5/2
f 138/5/2 137/5/2 139/5/2
f 140/4/2 141/4/2 142/4/2
f 142/4/2 141/4/2 143/4/2
f 144/4/2 145/4/2 146/4/2
f 146/4/2 145/4/2 147/4/2
f 148/5/2 149/5/2 150/5/2
f 150/5/2 149/5/2 151/5/2
f 151/5/2 149/5/2 152/5/2
f 151/4/2 152/4/2 153/4/2
f 153/4/2 152/4/2 154/4/2
f 153/2/2 154/2/2 155/2/2
f 155/2/2 154/2/2 156/2/2
f 157/1/2 158/1/2 159/1/2
f 159/1/2 158/1/2 160/1/2
f 161/3/2 162/3/2 163/3/2
f 163/3/2 162/3/2 164/3/2
f 165/3/2 166/3/2 167/3/2
f 167/3/2 166/3/2 168/3/2
f 165/3/2 167/3/2 169/3/2
f 168/3/2 166/3/2 170/3/2
f 165/3/2 169/3/2 171/3/2
f 169/3/2 170/3/2 171/3/2
f 170/3/2 166/3/2 172/3/2
f 171/3/2 170/3/2 172/3/2
f 173/1/2 174/1/2 175/1/2
f 175/1/2 174/1/2 176/1/2
f 176/1/2 174/1/2 177/1/2
f 177/1/2 174/1/2 180/1/2
f 178/1/2 179/1/2 181/1/2
f 179/1/2 180/1/2 181/1/2
f 180/1/2 174/1/2 182/1/2
f 181/1/2 180/1/2 182/1/2
f 183/5/2 184/5/2 185/5/2
f 185/5/2 184/5/2 186/5/2
f 186/5/2 184/5/2 187/5/2
f 186/5/2 187/5/2 191/5/2
f 187/2/2 188/2/2 192/2/2
f 191/5/2 187/5/2 192/5/2
f 188/4/2 189/4/2 193/4/2
f 192/2/2 188/2/2 193/2/2
f 193/4/2 189/4/2 194/4/2
f 191/5/2 192/5/2 195/5/2
f 190/5/2 191/5/2 195/5/2
f 195/5/2 192/5/2 196/5/2
f 201/5/3 198/5/3 197/5/3
f 202/5/3 198/5/3 201/5/3
f 203/5/3 200/5/3 199/5/3
f 204/5/3 200/5/3 203/5/3
f 209/5/3 206/5/3 205/5/3
f 210/5/3 206/5/3 209/5/3
f 211/5/3 208/5/3 207/5/3
f 212/5/3 208/5/3 211/5/3
f 215/5/3 214/5/3 213/5/3
f 216/5/3 214/5/3 215/5/3
f 219/5/3 218/5/3 217/5/3
f 220/5/3 218/5/3 219/5/3
f 223/1/3 222/1/3 221/1/3
f 224/1/3 222/1/3 223/1/3
f 225/1/3 222/1/3 224/1/3
f 226/1/3 222/1/3 225/1/3
f 227/1/3 223/1/3 221/1/3
f 227/5/3 224/5/3 223/5/3
f 228/1/3 225/1/3 224/1/3
f 228/5/3 224/5/3 227/5/3
f 229/1/3 227/1/3 221/1/3
f 229/1/3 228/1/3 227/1/3
f 230/1/3 225/1/3 228/1/3
f 230/1/3 228/1/3 229/1/3
f 231/1/3 229/1/3 221/1/3
f 231/5/3 230/5/3 229/5/3
f 232/1/3 225/1/3 230/1/3
f 232/5/3 230/5/3 231/5/3
f 233/1/3 231/1/3 221/1/3
f 233/1/3 232/1/3 231/1/3
f 234/1/3 225/1/3 232/1/3
f 234/1/3 232/1/3 233/1/3
f 235/1/3 233/1/3 221/1/3
f 235/5/3 234/5/3 233/5/3
f 236/1/3 225/1/3 234/1/3
f 236/5/3 234/5/3 235/5/3
f 237/1/3 225/1/3 236/1/3
f 238/1/3 222/1/3 226/1/3
f 239/1/3 237/1/3 236/1/3
f 239/1/3 238/1/3 237/1/3
f 239/1/3 235/1/3 221/1/3
f 239/1/3 236/1/3 235/1/3
f 240/1/3 222/1/3 238/1/3
f 240/1/3 238/1/3 239/1/3
f 243/3/3 242/3/3 241/3/3
f 244/3/3 242/3/3 243/3/3
f 249/4/3 248/4/3 247/4/3
f 250/4/3 248/4/3 249/4/3
f 253/4/3 246/4/3 245/4/3
f 254/4/3 246/4/3 253/4/3
f 255/4/3 252/4/3 251/4/3
f 256/4/3 252/4/3 255/4/3
f 257/3/3 243/3/3 241/3/3
f 258/3/3 242/3/3 244/3/3
f 259/3/3 257/3/3 241/3/3
f 259/3/3 258/3/3 257/3/3
f 260/3/3 242/3/3 258/3/3
f 260/3/3 258/3/3 259/3/3
f 265/1/3 262/1/3 261/1/3
f 265/1/3 264/1/3 263/1/3
f 265/1/3 263/1/3 262/1/3
f 266/1/3 264/1/3 265/1/3
f 269/3/3 268/3/3 267/3/3
f 270/3/3 268/3/3 269/3/3
f 271/3/3 269/3/3 267/3/3
f 272/3/3 268/3/3 270/3/3
f 273/3/3 271/3/3 267/3/3
f 273/3/3 272/3/3 271/3/3
f 274/3/3 272/3/3 273/3/3
f 275/3/3 273/3/3 267/3/3
f 276/3/3 272/3/3 274/3/3
f 277/3/3 272/3/3 276/3/3
f 277/3/3 276/3/3 275/3/3
f 278/3/3 268/3/3 272/3/3
f 278/3/3 272/3/3 277/3/3
f 279/3/3 277/3/3 275/3/3
f 280/3/3 268/3/3 278/3/3
f 281/3/3 279/3/3 275/3/3
f 281/3/3 280/3/3 279/3/3
f 281/3/3 275/3/3 267/3/3
f 282/3/3 268/3/3 280/3/3
f 282/3/3 280/3/3 281/3/3
f 285/1/3 284/1/3 283/1/3
f 286/1/3 284/1/3 285/1/3
f 287/1/3 284/1/3 286/1/3
f 288/1/3 284/1/3 287/1/3
f 291/5/3 290/5/3 289/5/3
f 292/5/3 290/5/3 291/5/3
f 295/5/3 294/5/3 293/5/3
f 296/5/3 294/5/3 295/5/3
f 300/4/3 298/4/3 297/4/3
f 301/2/3 299/2/3 298/2/3
f 301/4/3 298/4/3 300/4/3
f 302/2/3 299/2/3 301/2/3
f 308/4/3 304/4/3 303/4/3
f 309/4/3 304/4/3 308/4/3
f 310/4/3 304/4/3 309/4/3
f 311/3/3 306/3/3 305/3/3
f 312/3/3 306/3/3 311/3/3
f 313/5/3 308/5/3 307/5/3
f 314/4/3 309/4/3 308/4/3
f 314/5/3 308/5/3 313/5/3
f 315/4/3 309/4/3 314/4/3
f 316/4/3 304/4/3 310/4/3
f 320/4/3 315/4/3 314/4/3
f 320/4/3 316/4/3 315/4/3
f 321/4/3 304/4/3 316/4/3
f 321/4/3 316/4/3 320/4/3
f 322/4/3 318/4/3 317/4/3
f 323/2/3 319/2/3 318/2/3
f 323/4/3 318/4/3 322/4/3
f 324/2/3 319/2/3 323/2/3
f 325/5/4 326/5/4 329/5/4
f 329/5/4 326/5/4 330/5/4
f 327/5/4 328/5/4 331/5/4
f 331/5/4 328/5/4 332/5/4
f 333/5/4 334/5/4 337/5/4
f 337/5/4 334/5/4 338/5/4
f 335/5/4 336/5/4 339/5/4
f 339/5/4 336/5/4 340/5/4
f 341/4/4 342/4/4 343/4/4
f 343/4/4 342/4/4 344/4/4
f 345/4/4 346/4/4 348/4/4
f 348/4/4 346/4/4 349/4/4
f 349/4/4 346/4/4 350/4/4
f 347/5/4 348/5/4 351/5/4
f 348/4/4 349/4/4 352/4/4
f 351/5/4 348/5/4 352/5/4
f 352/4/4 349/4/4 353/4/4
f 350/4/4 346/4/4 354/4/4
f 352/4/4 353/4/4 355/4/4
f 353/4/4 354/4/4 355/4/4
f 354/4/4 346/4/4 356/4/4
f 355/4/4 354/4/4 356/4/4
f 357/4/4 358/4/4 359/4/4
f 359/4/4 358/4/4 360/4/4
f 361/1/4 362/1/4 363/1/4
f 363/1/4 362/1/4 364/1/4
f 365/5/4 366/5/4 369/5/4
f 366/4/4 367/4/4 370/4/4
f 369/5/4 366/5/4 370/5/4
f 367/2/4 368/2/4 371/2/4
f 370/4/4 367/4/4 371/4/4
f 371/2/4 368/2/4 372/2/4
f 373/5/4 374/5/4 377/5/4
f 374/4/4 375/4/4 378/4/4
f 377/5/4 374/5/4 378/5/4
f 375/2/4 376/2/4 379/2/4
f 378/4/4 375/4/4 379/4/4
f 379/2/4 376/2/4 380/2/4
f 381/1/4 382/1/4 383/1/4
f 383/1/4 382/1/4 384/1/4
f 385/3/4 386/3/4 387/3/4
f 387/3/4 386/3/4 388/3/4
f 389/3/4 390/3/4 391/3/4
f 391/3/4 390/3/4 392/3/4
f 397/5/5 394/5/5 393/5/5
f 398/5/5 394/5/5 397/5/5
f 399/5/5 396/5/5 395/5/5
f 400/5/5 396/5/5 399/5/5
f 403/3/5 402/3/5 401/3/5
f 404/3/5 402/3/5 403/3/5
f 405/3/5 402/3/5 404/3/5
f 406/3/5 402/3/5 405/3/5
f 407/3/5 403/3/5 401/3/5
f 408/3/5 405/3/5 404/3/5
f 409/3/5 405/3/5 408/3/5
f 410/3/5 402/3/5 406/3/5
f 411/3/5 409/3/5 408/3/5
f 411/3/5 410/3/5 409/3/5
f 411/3/5 407/3/5 401/3/5
f 411/3/5 408/3/5 407/3/5
f 412/3/5 402/3/5 410/3/5
f 412/3/5 410/3/5 411/3/5
f 415/1/5 414/1/5 413/1/5
f 416/1/5 414/1/5 415/1/5
f 421/5/5 418/5/5 417/5/5
f 422/5/5 418/5/5 421/5/5
f 423/5/5 420/5/5 419/5/5
f 424/5/5 420/5/5 423/5/5
f 429/1/5 426/1/5 425/1/5
f 430/1/5 426/1/5 429/1/5
f 431/1/5 428/1/5 427/1/5
f 432/1/5 428/1/5 431/1/5
f 437/2/5 434/2/5 433/2/5
f 438/2/5 436/2/5 435/2/5
f 439/2/5 437/2/5 433/2/5
f 440/2/5 437/2/5 439/2/5
f 441/2/5 436/2/5 438/2/5
f 442/2/5 436/2/5 441/2/5
f 443/4/5 440/4/5 439/4/5
f 444/4/5 440/4/5 443/4/5
f 445/4/5 442/4/5 441/4/5
f 446/4/5 442/4/5 445/4/5
f 451/5/5 448/5/5 447/5/5
f 452/5/5 448/5/5 451/5/5
f 453/5/5 450/5/5 449/5/5
f 454/5/5 450/5/5 453/5/5
f 457/1/5 456/1/5 455/1/5
f 458/1/5 456/1/5 457/1/5
f 463/4/5 460/4/5 459/4/5
f 464/4/5 460/4/5 463/4/5
f 467/4/5 462/4/5 461/4/5
f 468/4/5 462/4/5 467/4/5
f 469/3/5 466/3/5 465/3/5
f 470/3/5 466/3/5 469/3/5
f 475/4/5 472/4/5 471/4/5
f 476/4/5 472/4/5 475/4/5
f 477/4/5 474/4/5 473/4/5
f 478/4/5 474/4/5 477/4/5
f 481/4/5 480/4/5 479/4/5
f 482/4/5 480/4/5 481/4/5
f 483/5/6 484/5/6 487/5/6
f 487/5/6 484/5/6 488/5/6
f 485/5/6 486/5/6 489/5/6
f 489/5/6 486/5/6 490/5/6
f 491/5/6 492/5/6 495/5/6
f 495/5/6 492/5/6 496/5/6
f 493/5/6 494/5/6 497/5/6
f 497/5/6 494/5/6 498/5/6
f 499/1/6 500/1/6 501/1/6
f 501/1/6 500/1/6 502/1/6
f 503/2/6 504/2/6 507/2/6
f 505/2/6 506/2/6 508/2/6
f 503/2/6 507/2/6 509/2/6
f 509/2/6 507/2/6 510/2/6
f 508/2/6 506/2/6 511/2/6
f 511/2/6 506/2/6 512/2/6
f 509/4/6 510/4/6 513/4/6
f 513/4/6 510/4/6 514/4/6
f 511/4/6 512/4/6 515/4/6
f 515/4/6 512/4/6 516/4/6
f 517/5/6 518/5/6 521/5/6
f 521/5/6 518/5/6 522/5/6
f 519/5/6 520/5/6 525/5/6
f 525/5/6 520/5/6 526/5/6
f 523/1/6 524/1/6 527/1/6
f 527/1/6 524/1/6 528/1/6
f 529/1/6 530/1/6 533/1/6
f 533/1/6 530/1/6 534/1/6
f 531/1/6 532/1/6 535/1/6
f 535/1/6 532/1/6 536/1/6
f 537/3/6 538/3/6 539/3/6
f 539/3/6 538/3/6 540/3/6
f 537/3/6 539/3/6 541/3/6
f 540/3/6 538/3/6 542/3/6
f 537/3/6 541/3/6 543/3/6
f 541/3/6 542/3/6 543/3/6
f 542/3/6 538/3/6 544/3/6
f 543/3/6 542/3/6 544/3/6
f 545/3/6 546/3/6 547/3/6
f 547/3/6 546/3/6 548/3/6
f 549/4/6 550/4/6 553/4/6
f 553/4/6 550/4/6 554/4/6
f 551/4/6 552/4/6 555/4/6
f 555/4/6 552/4/6 556/4/6
f 557/3/6 558/3/6 559/3/6
f 559/3/6 558/3/6 560/3/6
f 557/3/6 559/3/6 561/3/6
f 560/3/6 558/3/6 562/3/6
f 557/3/6 561/3/6 563/3/6
f 561/3/6 562/3/6 563/3/6
f 562/3/6 558/3/6 564/3/6
f 563/3/6 562/3/6 564/3/6
f 565/4/6 566/4/6 567/4/6
f 567/4/6 566/4/6 568/4/6
f 569/4/6 570/4/6 571/4/6
f 571/4/6 570/4/6 572/4/6
