# MagicaVoxel @ Ephtracy

# group
o 

# material
mtllib decoracao-14.mtl
usemtl palette

# normals
vn -1 0 0
vn 1 0 0
vn 0 0 1
vn 0 0 -1
vn 0 -1 0
vn 0 1 0

# texcoords
vt 0.251953 0.5
vt 0.958984 0.5

# verts
v -19.7 0.2 4.3
v -19.7 0.2 0.7
v -19.7 0.4 4.3
v -19.7 0.4 0.7
v -19.6 0.2 4.4
v -19.6 0.2 4.3
v -19.6 0.2 0.7
v -19.6 0.2 0.6
v -19.6 0.4 4.4
v -19.6 0.4 4.3
v -19.6 0.4 0.7
v -19.6 0.4 0.6
v -19.6 0.5 4.3
v -19.6 0.5 0.7
v -19.5 0 4.3
v -19.5 0 0.7
v -19.5 0.2 4.5
v -19.5 0.2 4.4
v -19.5 0.2 4.3
v -19.5 0.2 0.7
v -19.5 0.2 0.6
v -19.5 0.2 0.5
v -19.5 0.3 4.3
v -19.5 0.3 0.7
v -19.5 0.4 4.5
v -19.5 0.4 4.4
v -19.5 0.4 4.3
v -19.5 0.4 0.7
v -19.5 0.4 0.6
v -19.5 0.4 0.5
v -19.5 0.5 4.4
v -19.5 0.5 4.3
v -19.5 0.5 0.7
v -19.5 0.5 0.6
v -19.5 0.6 4.3
v -19.5 0.6 0.7
v -15.9 0.2 4.4
v -15.9 0.2 4.3
v -15.9 0.2 0.7
v -15.9 0.2 0.6
v -15.9 0.3 4.4
v -15.9 0.3 4.3
v -15.9 0.3 0.7
v -15.9 0.3 0.6
v -15.8 0.2 4.3
v -15.8 0.2 0.7
v -15.8 0.3 4.3
v -15.8 0.3 0.7
v -19.6 0.2 4.3
v -19.6 0.2 0.7
v -19.6 0.3 4.3
v -19.6 0.3 0.7
v -19.5 0.2 4.4
v -19.5 0.2 4.3
v -19.5 0.2 0.7
v -19.5 0.2 0.6
v -19.5 0.3 4.4
v -19.5 0.3 4.3
v -19.5 0.3 0.7
v -19.5 0.3 0.6
v -15.9 0 4.3
v -15.9 0 0.7
v -15.9 0.2 4.5
v -15.9 0.2 4.4
v -15.9 0.2 4.3
v -15.9 0.2 0.7
v -15.9 0.2 0.6
v -15.9 0.2 0.5
v -15.9 0.3 4.3
v -15.9 0.3 0.7
v -15.9 0.4 4.5
v -15.9 0.4 4.4
v -15.9 0.4 4.3
v -15.9 0.4 0.7
v -15.9 0.4 0.6
v -15.9 0.4 0.5
v -15.9 0.5 4.4
v -15.9 0.5 4.3
v -15.9 0.5 0.7
v -15.9 0.5 0.6
v -15.9 0.6 4.3
v -15.9 0.6 0.7
v -15.8 0.2 4.4
v -15.8 0.2 4.3
v -15.8 0.2 0.7
v -15.8 0.2 0.6
v -15.8 0.4 4.4
v -15.8 0.4 4.3
v -15.8 0.4 0.7
v -15.8 0.4 0.6
v -15.8 0.5 4.3
v -15.8 0.5 0.7
v -15.7 0.2 4.3
v -15.7 0.2 0.7
v -15.7 0.4 4.3
v -15.7 0.4 0.7
v -19.5 0.2 4.5
v -19.5 0.4 4.5
v -15.9 0.2 4.5
v -15.9 0.4 4.5
v -19.6 0.2 4.4
v -19.6 0.4 4.4
v -19.5 0.2 4.4
v -19.5 0.4 4.4
v -19.5 0.5 4.4
v -15.9 0.2 4.4
v -15.9 0.4 4.4
v -15.9 0.5 4.4
v -15.8 0.2 4.4
v -15.8 0.4 4.4
v -19.7 0.2 4.3
v -19.7 0.4 4.3
v -19.6 0.2 4.3
v -19.6 0.4 4.3
v -19.6 0.5 4.3
v -19.5 0 4.3
v -19.5 0.2 4.3
v -19.5 0.3 4.3
v -19.5 0.4 4.3
v -19.5 0.5 4.3
v -19.5 0.6 4.3
v -15.9 0 4.3
v -15.9 0.2 4.3
v -15.9 0.3 4.3
v -15.9 0.4 4.3
v -15.9 0.5 4.3
v -15.9 0.6 4.3
v -15.8 0.2 4.3
v -15.8 0.4 4.3
v -15.8 0.5 4.3
v -15.7 0.2 4.3
v -15.7 0.4 4.3
v -19.6 0.2 0.7
v -19.6 0.3 0.7
v -19.5 0.2 0.7
v -19.5 0.3 0.7
v -15.9 0.2 0.7
v -15.9 0.3 0.7
v -15.8 0.2 0.7
v -15.8 0.3 0.7
v -19.5 0.2 0.6
v -19.5 0.3 0.6
v -15.9 0.2 0.6
v -15.9 0.3 0.6
v -19.5 0.2 4.4
v -19.5 0.3 4.4
v -15.9 0.2 4.4
v -15.9 0.3 4.4
v -19.6 0.2 4.3
v -19.6 0.3 4.3
v -19.5 0.2 4.3
v -19.5 0.3 4.3
v -15.9 0.2 4.3
v -15.9 0.3 4.3
v -15.8 0.2 4.3
v -15.8 0.3 4.3
v -19.7 0.2 0.7
v -19.7 0.4 0.7
v -19.6 0.2 0.7
v -19.6 0.4 0.7
v -19.6 0.5 0.7
v -19.5 0 0.7
v -19.5 0.2 0.7
v -19.5 0.3 0.7
v -19.5 0.4 0.7
v -19.5 0.5 0.7
v -19.5 0.6 0.7
v -15.9 0 0.7
v -15.9 0.2 0.7
v -15.9 0.3 0.7
v -15.9 0.4 0.7
v -15.9 0.5 0.7
v -15.9 0.6 0.7
v -15.8 0.2 0.7
v -15.8 0.4 0.7
v -15.8 0.5 0.7
v -15.7 0.2 0.7
v -15.7 0.4 0.7
v -19.6 0.2 0.6
v -19.6 0.4 0.6
v -19.5 0.2 0.6
v -19.5 0.4 0.6
v -19.5 0.5 0.6
v -15.9 0.2 0.6
v -15.9 0.4 0.6
v -15.9 0.5 0.6
v -15.8 0.2 0.6
v -15.8 0.4 0.6
v -19.5 0.2 0.5
v -19.5 0.4 0.5
v -15.9 0.2 0.5
v -15.9 0.4 0.5
v -19.5 0 4.3
v -15.9 0 4.3
v -19.5 0 0.7
v -15.9 0 0.7
v -19.5 0.2 4.5
v -15.9 0.2 4.5
v -19.6 0.2 4.4
v -19.5 0.2 4.4
v -15.9 0.2 4.4
v -15.8 0.2 4.4
v -19.7 0.2 4.3
v -19.6 0.2 4.3
v -19.5 0.2 4.3
v -15.9 0.2 4.3
v -15.8 0.2 4.3
v -15.7 0.2 4.3
v -19.7 0.2 0.7
v -19.6 0.2 0.7
v -19.5 0.2 0.7
v -15.9 0.2 0.7
v -15.8 0.2 0.7
v -15.7 0.2 0.7
v -19.6 0.2 0.6
v -19.5 0.2 0.6
v -15.9 0.2 0.6
v -15.8 0.2 0.6
v -19.5 0.2 0.5
v -15.9 0.2 0.5
v -19.5 0.3 4.4
v -15.9 0.3 4.4
v -19.6 0.3 4.3
v -19.5 0.3 4.3
v -15.9 0.3 4.3
v -15.8 0.3 4.3
v -19.6 0.3 0.7
v -19.5 0.3 0.7
v -15.9 0.3 0.7
v -15.8 0.3 0.7
v -19.5 0.3 0.6
v -15.9 0.3 0.6
v -19.5 0.4 4.5
v -15.9 0.4 4.5
v -19.6 0.4 4.4
v -19.5 0.4 4.4
v -15.9 0.4 4.4
v -15.8 0.4 4.4
v -19.7 0.4 4.3
v -19.6 0.4 4.3
v -19.5 0.4 4.3
v -15.9 0.4 4.3
v -15.8 0.4 4.3
v -15.7 0.4 4.3
v -19.7 0.4 0.7
v -19.6 0.4 0.7
v -19.5 0.4 0.7
v -15.9 0.4 0.7
v -15.8 0.4 0.7
v -15.7 0.4 0.7
v -19.6 0.4 0.6
v -19.5 0.4 0.6
v -15.9 0.4 0.6
v -15.8 0.4 0.6
v -19.5 0.4 0.5
v -15.9 0.4 0.5
v -19.5 0.5 4.4
v -15.9 0.5 4.4
v -19.6 0.5 4.3
v -19.5 0.5 4.3
v -15.9 0.5 4.3
v -15.8 0.5 4.3
v -19.6 0.5 0.7
v -19.5 0.5 0.7
v -15.9 0.5 0.7
v -15.8 0.5 0.7
v -19.5 0.5 0.6
v -15.9 0.5 0.6
v -19.5 0.6 4.3
v -15.9 0.6 4.3
v -19.5 0.6 0.7
v -15.9 0.6 0.7

# faces
f 3/2/1 2/2/1 1/2/1
f 4/2/1 2/2/1 3/2/1
f 9/2/1 6/2/1 5/2/1
f 10/2/1 6/2/1 9/2/1
f 11/2/1 8/2/1 7/2/1
f 12/2/1 8/2/1 11/2/1
f 13/2/1 11/2/1 10/2/1
f 14/2/1 11/2/1 13/2/1
f 19/1/1 16/1/1 15/1/1
f 20/1/1 16/1/1 19/1/1
f 23/1/1 20/1/1 19/1/1
f 24/1/1 20/1/1 23/1/1
f 25/2/1 18/2/1 17/2/1
f 26/2/1 18/2/1 25/2/1
f 29/2/1 22/2/1 21/2/1
f 30/2/1 22/2/1 29/2/1
f 31/2/1 27/2/1 26/2/1
f 32/2/1 27/2/1 31/2/1
f 33/2/1 29/2/1 28/2/1
f 34/2/1 29/2/1 33/2/1
f 35/2/1 33/2/1 32/2/1
f 36/2/1 33/2/1 35/2/1
f 41/2/1 38/2/1 37/2/1
f 42/2/1 38/2/1 41/2/1
f 43/2/1 40/2/1 39/2/1
f 44/2/1 40/2/1 43/2/1
f 47/2/1 46/2/1 45/2/1
f 48/2/1 46/2/1 47/2/1
f 49/2/2 50/2/2 51/2/2
f 51/2/2 50/2/2 52/2/2
f 53/2/2 54/2/2 57/2/2
f 57/2/2 54/2/2 58/2/2
f 55/2/2 56/2/2 59/2/2
f 59/2/2 56/2/2 60/2/2
f 61/1/2 62/1/2 65/1/2
f 65/1/2 62/1/2 66/1/2
f 65/1/2 66/1/2 69/1/2
f 69/1/2 66/1/2 70/1/2
f 63/2/2 64/2/2 71/2/2
f 71/2/2 64/2/2 72/2/2
f 67/2/2 68/2/2 75/2/2
f 75/2/2 68/2/2 76/2/2
f 72/2/2 73/2/2 77/2/2
f 77/2/2 73/2/2 78/2/2
f 74/2/2 75/2/2 79/2/2
f 79/2/2 75/2/2 80/2/2
f 78/2/2 79/2/2 81/2/2
f 81/2/2 79/2/2 82/2/2
f 83/2/2 84/2/2 87/2/2
f 87/2/2 84/2/2 88/2/2
f 85/2/2 86/2/2 89/2/2
f 89/2/2 86/2/2 90/2/2
f 88/2/2 89/2/2 91/2/2
f 91/2/2 89/2/2 92/2/2
f 93/2/2 94/2/2 95/2/2
f 95/2/2 94/2/2 96/2/2
f 99/2/3 98/2/3 97/2/3
f 100/2/3 98/2/3 99/2/3
f 103/2/3 102/2/3 101/2/3
f 104/2/3 102/2/3 103/2/3
f 107/2/3 105/2/3 104/2/3
f 108/2/3 105/2/3 107/2/3
f 109/2/3 107/2/3 106/2/3
f 110/2/3 107/2/3 109/2/3
f 113/2/3 112/2/3 111/2/3
f 114/2/3 112/2/3 113/2/3
f 119/2/3 115/2/3 114/2/3
f 120/2/3 115/2/3 119/2/3
f 122/1/3 118/1/3 117/1/3
f 122/1/3 117/1/3 116/1/3
f 123/1/3 118/1/3 122/1/3
f 124/1/3 118/1/3 123/1/3
f 126/2/3 121/2/3 120/2/3
f 127/2/3 121/2/3 126/2/3
f 129/2/3 126/2/3 125/2/3
f 130/2/3 126/2/3 129/2/3
f 131/2/3 129/2/3 128/2/3
f 132/2/3 129/2/3 131/2/3
f 135/2/3 134/2/3 133/2/3
f 136/2/3 134/2/3 135/2/3
f 139/2/3 138/2/3 137/2/3
f 140/2/3 138/2/3 139/2/3
f 143/2/3 142/2/3 141/2/3
f 144/2/3 142/2/3 143/2/3
f 145/2/4 146/2/4 147/2/4
f 147/2/4 146/2/4 148/2/4
f 149/2/4 150/2/4 151/2/4
f 151/2/4 150/2/4 152/2/4
f 153/2/4 154/2/4 155/2/4
f 155/2/4 154/2/4 156/2/4
f 157/2/4 158/2/4 159/2/4
f 159/2/4 158/2/4 160/2/4
f 160/2/4 161/2/4 165/2/4
f 165/2/4 161/2/4 166/2/4
f 163/1/4 164/1/4 168/1/4
f 162/1/4 163/1/4 168/1/4
f 168/1/4 164/1/4 169/1/4
f 169/1/4 164/1/4 170/1/4
f 166/2/4 167/2/4 172/2/4
f 172/2/4 167/2/4 173/2/4
f 171/2/4 172/2/4 175/2/4
f 175/2/4 172/2/4 176/2/4
f 174/2/4 175/2/4 177/2/4
f 177/2/4 175/2/4 178/2/4
f 179/2/4 180/2/4 181/2/4
f 181/2/4 180/2/4 182/2/4
f 182/2/4 183/2/4 185/2/4
f 185/2/4 183/2/4 186/2/4
f 184/2/4 185/2/4 187/2/4
f 187/2/4 185/2/4 188/2/4
f 189/2/4 190/2/4 191/2/4
f 191/2/4 190/2/4 192/2/4
f 195/1/5 194/1/5 193/1/5
f 196/1/5 194/1/5 195/1/5
f 200/2/5 198/2/5 197/2/5
f 201/2/5 198/2/5 200/2/5
f 204/2/5 200/2/5 199/2/5
f 205/2/5 200/2/5 204/2/5
f 206/2/5 202/2/5 201/2/5
f 207/2/5 202/2/5 206/2/5
f 209/2/5 204/2/5 203/2/5
f 210/2/5 204/2/5 209/2/5
f 213/2/5 208/2/5 207/2/5
f 214/2/5 208/2/5 213/2/5
f 215/2/5 211/2/5 210/2/5
f 216/2/5 211/2/5 215/2/5
f 217/2/5 213/2/5 212/2/5
f 218/2/5 213/2/5 217/2/5
f 219/2/5 217/2/5 216/2/5
f 220/2/5 217/2/5 219/2/5
f 224/2/5 222/2/5 221/2/5
f 225/2/5 222/2/5 224/2/5
f 227/2/5 224/2/5 223/2/5
f 228/2/5 224/2/5 227/2/5
f 229/2/5 226/2/5 225/2/5
f 230/2/5 226/2/5 229/2/5
f 231/2/5 229/2/5 228/2/5
f 232/2/5 229/2/5 231/2/5
f 233/2/6 234/2/6 236/2/6
f 236/2/6 234/2/6 237/2/6
f 235/2/6 236/2/6 240/2/6
f 240/2/6 236/2/6 241/2/6
f 237/2/6 238/2/6 242/2/6
f 242/2/6 238/2/6 243/2/6
f 239/2/6 240/2/6 245/2/6
f 245/2/6 240/2/6 246/2/6
f 243/2/6 244/2/6 249/2/6
f 249/2/6 244/2/6 250/2/6
f 246/2/6 247/2/6 251/2/6
f 251/2/6 247/2/6 252/2/6
f 248/2/6 249/2/6 253/2/6
f 253/2/6 249/2/6 254/2/6
f 252/2/6 253/2/6 255/2/6
f 255/2/6 253/2/6 256/2/6
f 257/2/6 258/2/6 260/2/6
f 260/2/6 258/2/6 261/2/6
f 259/2/6 260/2/6 263/2/6
f 263/2/6 260/2/6 264/2/6
f 261/2/6 262/2/6 265/2/6
f 265/2/6 262/2/6 266/2/6
f 264/2/6 265/2/6 267/2/6
f 267/2/6 265/2/6 268/2/6
f 269/2/6 270/2/6 271/2/6
f 271/2/6 270/2/6 272/2/6
