# MagicaVoxel @ Ephtracy

# group
o 

# material
mtllib fabrica-2.mtl
usemtl palette

# normals
vn -1 0 0
vn 1 0 0
vn 0 0 1
vn 0 0 -1
vn 0 -1 0
vn 0 1 0

# texcoords
vt 0.0644531 0.5
vt 0.111328 0.5
vt 0.154297 0.5
vt 0.205078 0.5
vt 0.732422 0.5
vt 0.794922 0.5

# verts
v 17.4 0.1 -18.1
v 17.4 0.1 -18.9
v 17.4 1.7 -18.1
v 17.4 1.7 -18.9
v 17.9 1.7 -18.3
v 17.9 1.7 -18.9
v 17.9 2.1 -18.3
v 17.9 2.1 -18.9
v 18.4 0.1 -17.7
v 18.4 0.1 -18.9
v 18.4 1 -17.7
v 18.4 1 -18.9
v 18.7 1 -18
v 18.7 1 -18.9
v 18.7 1.7 -18
v 18.7 1.7 -18.3
v 18.7 1.7 -18.9
v 18.8 0.1 -17.1
v 18.8 0.1 -17.7
v 18.8 0.5 -17.1
v 18.8 0.5 -17.7
v 19.1 1.7 -18.3
v 19.1 1.7 -18.9
v 19.1 3.8 -18.3
v 19.1 3.8 -18.9
v 18.2 0.1 -18.1
v 18.2 0.1 -18.9
v 18.2 1.7 -18.1
v 18.2 1.7 -18.3
v 18.2 1.7 -18.9
v 19 1.7 -18.3
v 19 1.7 -18.9
v 19 2.1 -18.3
v 19 2.1 -18.9
v 19.6 0.1 -17.1
v 19.6 0.1 -17.7
v 19.6 0.1 -18.9
v 19.6 0.5 -17.1
v 19.6 0.5 -17.7
v 19.6 1 -17.7
v 19.6 1 -18
v 19.6 1 -18.9
v 19.6 1.7 -18
v 19.6 1.7 -18.3
v 19.6 1.7 -18.9
v 19.6 3.8 -18.3
v 19.6 3.8 -18.9
v 18.8 0.1 -17.1
v 18.8 0.5 -17.1
v 19.6 0.1 -17.1
v 19.6 0.5 -17.1
v 18.4 0.1 -17.7
v 18.4 1 -17.7
v 18.8 0.1 -17.7
v 18.8 0.5 -17.7
v 19.6 0.5 -17.7
v 19.6 1 -17.7
v 18.7 1 -18
v 18.7 1.7 -18
v 19.6 1 -18
v 19.6 1.7 -18
v 17.4 0.1 -18.1
v 17.4 1.7 -18.1
v 18.2 0.1 -18.1
v 18.2 1.7 -18.1
v 17.9 1.7 -18.3
v 17.9 2.1 -18.3
v 18.2 1.7 -18.3
v 18.7 1.7 -18.3
v 19 1.7 -18.3
v 19 2.1 -18.3
v 19.1 1.7 -18.3
v 19.1 3.8 -18.3
v 19.6 1.7 -18.3
v 19.6 3.8 -18.3
v 17.4 0.1 -18.9
v 17.4 1.7 -18.9
v 17.9 1.7 -18.9
v 17.9 2.1 -18.9
v 18.2 0.1 -18.9
v 18.2 1.7 -18.9
v 18.4 0.1 -18.9
v 18.4 1 -18.9
v 18.7 1 -18.9
v 18.7 1.7 -18.9
v 19 1.7 -18.9
v 19 2.1 -18.9
v 19.1 1.7 -18.9
v 19.1 3.8 -18.9
v 19.6 0.1 -18.9
v 19.6 1 -18.9
v 19.6 1.7 -18.9
v 19.6 3.8 -18.9
v 18.8 0.1 -17.1
v 19.6 0.1 -17.1
v 18.4 0.1 -17.7
v 18.8 0.1 -17.7
v 19.6 0.1 -17.7
v 17.4 0.1 -18.1
v 18.2 0.1 -18.1
v 17.4 0.1 -18.9
v 18.2 0.1 -18.9
v 18.4 0.1 -18.9
v 19.6 0.1 -18.9
v 18.2 1.7 -18.3
v 18.7 1.7 -18.3
v 18.2 1.7 -18.9
v 18.7 1.7 -18.9
v 18.8 0.5 -17.1
v 19.6 0.5 -17.1
v 18.8 0.5 -17.7
v 19.6 0.5 -17.7
v 18.4 1 -17.7
v 19.6 1 -17.7
v 18.7 1 -18
v 19.6 1 -18
v 18.4 1 -18.9
v 18.7 1 -18.9
v 18.7 1.7 -18
v 19.6 1.7 -18
v 17.4 1.7 -18.1
v 18.2 1.7 -18.1
v 17.9 1.7 -18.3
v 18.2 1.7 -18.3
v 18.7 1.7 -18.3
v 19 1.7 -18.3
v 19.1 1.7 -18.3
v 19.6 1.7 -18.3
v 17.4 1.7 -18.9
v 17.9 1.7 -18.9
v 19 1.7 -18.9
v 19.1 1.7 -18.9
v 17.9 2.1 -18.3
v 19 2.1 -18.3
v 17.9 2.1 -18.9
v 19 2.1 -18.9
v 19.1 3.8 -18.3
v 19.6 3.8 -18.3
v 19.1 3.8 -18.9
v 19.6 3.8 -18.9

# faces
f 3/3/1 2/3/1 1/3/1
f 4/3/1 2/3/1 3/3/1
f 7/4/1 6/4/1 5/4/1
f 8/4/1 6/4/1 7/4/1
f 11/1/1 10/1/1 9/1/1
f 12/1/1 10/1/1 11/1/1
f 15/5/1 14/5/1 13/5/1
f 16/5/1 14/5/1 15/5/1
f 17/5/1 14/5/1 16/5/1
f 20/6/1 19/6/1 18/6/1
f 21/6/1 19/6/1 20/6/1
f 24/2/1 23/2/1 22/2/1
f 25/2/1 23/2/1 24/2/1
f 26/3/2 27/3/2 28/3/2
f 28/3/2 27/3/2 29/3/2
f 29/3/2 27/3/2 30/3/2
f 31/4/2 32/4/2 33/4/2
f 33/4/2 32/4/2 34/4/2
f 35/6/2 36/6/2 38/6/2
f 36/1/2 37/1/2 39/1/2
f 38/6/2 36/6/2 39/6/2
f 39/1/2 37/1/2 40/1/2
f 40/1/2 37/1/2 41/1/2
f 41/1/2 37/1/2 42/1/2
f 41/5/2 42/5/2 43/5/2
f 43/5/2 42/5/2 44/5/2
f 44/5/2 42/5/2 45/5/2
f 44/2/2 45/2/2 46/2/2
f 46/2/2 45/2/2 47/2/2
f 50/6/3 49/6/3 48/6/3
f 51/6/3 49/6/3 50/6/3
f 54/1/3 53/1/3 52/1/3
f 55/1/3 53/1/3 54/1/3
f 56/1/3 53/1/3 55/1/3
f 57/1/3 53/1/3 56/1/3
f 60/5/3 59/5/3 58/5/3
f 61/5/3 59/5/3 60/5/3
f 64/3/3 63/3/3 62/3/3
f 65/3/3 63/3/3 64/3/3
f 68/4/3 67/4/3 66/4/3
f 69/4/3 67/4/3 68/4/3
f 70/4/3 67/4/3 69/4/3
f 71/4/3 67/4/3 70/4/3
f 74/2/3 73/2/3 72/2/3
f 75/2/3 73/2/3 74/2/3
f 76/3/4 77/3/4 78/3/4
f 76/3/4 78/3/4 80/3/4
f 78/4/4 79/4/4 81/4/4
f 80/3/4 78/3/4 81/3/4
f 82/1/4 83/1/4 84/1/4
f 81/4/4 79/4/4 85/4/4
f 85/4/4 79/4/4 86/4/4
f 84/5/4 85/5/4 86/5/4
f 86/4/4 79/4/4 87/4/4
f 84/5/4 86/5/4 88/5/4
f 82/1/4 84/1/4 90/1/4
f 84/5/4 88/5/4 91/5/4
f 90/1/4 84/1/4 91/1/4
f 88/2/4 89/2/4 92/2/4
f 91/5/4 88/5/4 92/5/4
f 92/2/4 89/2/4 93/2/4
f 97/6/5 95/6/5 94/6/5
f 98/6/5 95/6/5 97/6/5
f 101/3/5 100/3/5 99/3/5
f 102/3/5 100/3/5 101/3/5
f 103/1/5 97/1/5 96/1/5
f 103/1/5 98/1/5 97/1/5
f 104/1/5 98/1/5 103/1/5
f 107/4/5 106/4/5 105/4/5
f 108/4/5 106/4/5 107/4/5
f 109/6/6 110/6/6 111/6/6
f 111/6/6 110/6/6 112/6/6
f 113/1/6 114/1/6 115/1/6
f 115/1/6 114/1/6 116/1/6
f 113/1/6 115/1/6 117/1/6
f 117/1/6 115/1/6 118/1/6
f 121/3/6 122/3/6 123/3/6
f 123/3/6 122/3/6 124/3/6
f 119/5/6 120/5/6 125/5/6
f 125/5/6 120/5/6 126/5/6
f 126/5/6 120/5/6 127/5/6
f 127/5/6 120/5/6 128/5/6
f 121/3/6 123/3/6 129/3/6
f 129/3/6 123/3/6 130/3/6
f 126/5/6 127/5/6 131/5/6
f 131/5/6 127/5/6 132/5/6
f 133/4/6 134/4/6 135/4/6
f 135/4/6 134/4/6 136/4/6
f 137/2/6 138/2/6 139/2/6
f 139/2/6 138/2/6 140/2/6
